<?xml version="1.0" encoding="utf-8"?>
<!DOCTYPE svg PUBLIC "-//W3C//DTD SVG 1.0//EN" "http://www.w3.org/TR/2001/REC-SVG-20010904/DTD/svg10.dtd">
<svg version="1.0" xmlns="http://www.w3.org/2000/svg" width="1408px" height="786px" viewBox="480 90 460 460" preserveAspectRatio="xMidYMid meet">
 <g fill="#fdfdfd">
  
  
  
  <path d="M685.1 430.9 c-5.9 -3.8 -23.4 -14.5 -61 -37.5 -17.8 -10.7 -18.1 -11.1 -18.7 -14.9 -0.4 -2.6 -1.9 -5.5 -4.2 -8 l-3.6 -3.9 0 -54.3 0 -54.2 3.6 -3.6 c2.5 -2.5 3.7 -4.8 4.2 -7.9 0.6 -3.8 1.3 -4.7 5.2 -7.1 6.4 -3.8 51.3 -31.4 67.8 -41.7 13.3 -8.3 14 -8.6 18.4 -8 2.6 0.3 8.3 0.6 12.8 0.5 l8.2 -0.1 8.9 5.6 c4.9 3.1 23 14.2 40.4 24.8 17.3 10.5 32.5 19.7 33.9 20.6 1.5 0.9 2.3 2.4 2.3 4.5 0 3.8 2.4 8.5 5.3 10.5 2.3 1.6 2.4 1.9 2.4 28 l0 26.3 -43.1 0.3 -43.2 0.2 -2.8 -5.7 c-4.7 -9.6 -13.6 -14.3 -22.2 -11.8 -5.4 1.6 -13.3 9.5 -14.9 15 -3.2 10.6 8.2 25 19.7 25 5.9 0 14.3 -6.3 18 -13.5 l1.9 -3.9 36.8 -0.2 c20.3 -0.1 39.5 -0.2 42.8 -0.3 l5.8 0 0.3 26 c0.2 25.5 0.2 26 -1.9 27.5 -2.5 1.7 -5 7.2 -5 10.6 0 1.8 -1.8 3.5 -8.4 7.5 -4.7 2.8 -9.6 5.9 -11.1 7 -1.4 1 -6 3.9 -10.2 6.2 -4.2 2.4 -16.9 10 -28.1 17 -30.3 18.7 -28.4 17.7 -34.6 17 -6.1 -0.7 -5.6 -0.7 -13.5 -0.1 -5.8 0.5 -6.4 0.3 -12.3 -3.5z m30.1 -26.6 c5.4 -3.3 16.8 -10.1 25.2 -15.3 8.5 -5.1 16.1 -9.8 16.9 -10.3 0.8 -0.5 7.7 -4.6 15.1 -9.2 l13.5 -8.4 0 -10.6 0 -10.6 -12.2 0 -12.3 0 -0.3 4.3 -0.3 4.4 -26.1 16.1 c-21.7 13.4 -26.8 16.1 -30.1 16.2 -3.3 0 -7.8 -2.4 -28.1 -14.6 -13.3 -8.1 -25.2 -15.3 -26.4 -16.2 l-2.4 -1.4 0 -35.8 0 -35.8 8.4 -5.1 c4.6 -2.9 16.5 -10 26.3 -16.1 15.1 -9.3 18.6 -11.1 22.1 -11.1 3.5 0.1 8 2.5 30.2 16.2 l26.1 16.2 0.3 4.8 0.3 4.8 12.8 0 12.7 0 -0.1 -8.9 c-0.1 -5 -0.4 -10.1 -0.8 -11.6 -0.7 -2.7 -6.5 -6.4 -58.6 -38 l-22.3 -13.5 -4.2 1.9 c-2.4 1 -6.1 3.2 -8.3 4.8 -2.3 1.6 -6.2 4.1 -8.8 5.5 -5.7 3.2 -51.2 31.1 -57 35 l-4.1 2.8 -0.3 47.6 c-0.2 45.4 -0.1 47.8 1.6 49.4 2.5 2.1 79.2 48.7 80.4 48.7 0.4 0 5.3 -2.7 10.7 -6z"/>
  <path d="M696 326.1 c-4.3 -2.5 -5.8 -5.8 -5.8 -13.2 0 -6.4 0.2 -7.2 3.3 -10.1 2.7 -2.8 4.2 -3.4 8.9 -3.8 11.2 -0.9 16 3.3 16 14 0 7.6 -1.3 10.4 -6.1 12.9 -3.6 1.8 -12.9 1.9 -16.2 0.2z"/>
 </g>
 <g fill="#6032c4">
  <path d="M788.9 435.9 c0 -10.5 0.1 -11.3 2 -11.3 1.9 0 2 0.7 2 11.3 0 10.5 -0.1 11.3 -2 11.3 -1.9 0 -2 -0.7 -2 -11.3z"/>
  <path d="M776.7 407.3 l0 -7.2 3.6 0 c3.7 0 4.8 1.3 2 2.5 -1.1 0.4 -1.5 2.1 -1.5 6.2 0 4.9 -0.2 5.6 -2 5.6 -1.8 0 -2 -0.7 -2 -7.2z"/>
  <path d="M882 336.7 c0 -4.5 0.4 -8.2 0.8 -8.2 2.3 0 3.3 3 3.3 9.4 0 6.2 -0.2 7 -2 7 -1.8 0 -2 -0.7 -2 -8.2z"/>
  <path d="M814.5 274.7 l0 -16.9 3.8 0 c3.5 0 3.6 0.1 2 1.8 -1.4 1.5 -1.7 4.3 -1.7 15.9 0 12.2 0.2 14 1.8 14.9 1.4 0.8 1 1 -2 1.1 l-3.9 0 0 -16.9z"/>
  <path d="M758 284.8 l-0.3 -4.8 -26.1 -16.2 c-19.3 -12 -26.7 -16 -28.4 -15.7 l-2.3 0.5 0 -18.3 0 -18.3 2.7 -0.6 c3.3 -0.8 4.8 0 51.1 28.3 26.4 16.3 33.9 21.2 34.4 23.2 0.4 1.4 0.7 8 0.8 14.6 l0.1 12 -15.8 0 -15.9 0 -0.3 -4.8z"/>
  <path d="M882 236.4 c0 -19.7 0.1 -20.5 2 -20.5 1.9 0 2 0.7 2 20.5 0 19.7 -0.1 20.5 -2 20.5 -1.9 0 -2 -0.7 -2 -20.5z"/>
  <path d="M730.3 203 c-3.2 -2 -3.9 -3.2 -3.6 -5.3 0.3 -2.6 0.6 -2.8 5.4 -2.8 l5.1 0 0.3 5.4 c0.3 4.6 0.1 5.3 -1.5 5.3 -1 0 -3.6 -1.2 -5.7 -2.7z"/>
  <path d="M699.5 194 c-2.8 -1 -4.6 -1.2 -5.8 -0.5 -2.4 1.2 -3 1.1 -3 -0.2 0 -0.6 -0.8 -2.8 -1.7 -4.7 -1.5 -3.4 -1.5 -3.7 0 -4.6 0.9 -0.5 1.7 -2 1.7 -3.5 0 -4.3 2.8 -9.4 6 -11.1 1.6 -0.9 5.4 -1.6 8.3 -1.6 4.4 0 5.7 0.5 8.2 3 3.1 3 5.1 8.4 3.5 9 -2.6 0.9 -3.5 2.5 -4.9 7.9 -0.9 3.4 -1.7 6.2 -1.9 6.3 -1.2 1.2 -7 1.2 -10.3 0z"/>
  <path d="M754.8 175.9 c-0.3 -3.5 -0.6 -9.6 -0.6 -13.6 l-0.1 -7.3 -24.8 -15 c-19.5 -11.9 -25.1 -14.7 -26.5 -14 -1.7 0.9 -1.8 0.1 -1.8 -13.4 0 -8.9 -0.4 -14.3 -1 -14.3 -1.8 0 -1 -1.8 1.6 -3.6 3.3 -2.1 0.5 -3.6 39.3 20.3 15.5 9.6 30.8 19 34.1 21 l5.8 3.5 0 13.6 0 13.7 -10.1 6 c-5.5 3.4 -11.3 6.9 -12.7 7.8 l-2.5 1.6 -0.7 -6.2z"/>
 </g>
 <g fill="#2f68be">
  
  <path d="M522.5 412.2 c-0.8 -3.1 -0.8 -76.9 0 -79 0.3 -0.9 1.2 -1.6 2 -1.6 1.2 0 1.4 6.7 1.4 41.4 0 34.6 -0.2 41.4 -1.4 41.4 -0.7 0 -1.6 -1 -2 -2.3z"/>
  <path d="M596.6 289.6 c0 -23.8 0.1 -24.6 2 -24.6 1.9 0 2 0.7 2 24.6 0 23.8 -0.1 24.6 -2 24.6 -1.9 0 -2 -0.7 -2 -24.6z"/>
  <path d="M789.3 277.3 c0 -6.4 0.1 -9.1 0.3 -5.8 0.2 3.2 0.2 8.5 0 11.8 -0.2 3.2 -0.3 0.5 -0.3 -5.9z"/>
  <path d="M589.5 273.2 c0.1 -11.4 0.3 -12.3 2 -12.3 1.8 0 1.9 0.9 1.9 12.3 0 11.7 -0.1 12.3 -2 12.3 -2 0 -2.1 -0.5 -1.9 -12.3z"/>
  <path d="M692.7 249.3 c0 -1.3 -0.7 -2.7 -1.5 -3.1 -0.8 -0.3 -1.5 -1.6 -1.5 -3.1 0 -3.5 -1 -5.7 -2.6 -5.7 -0.7 0 -1.6 -1.5 -1.9 -3.5 -0.4 -2.3 -1.4 -3.8 -2.7 -4.2 -1.4 -0.4 -2 -1.5 -2 -3.7 0 -1.6 0.5 -3 1.1 -3 0.6 0 3.3 -1.5 5.9 -3.5 5.5 -4.1 12.7 -7.8 14.8 -7.8 1.3 0 1.6 2.7 1.8 17.7 l0.3 17.6 -4 2.4 c-5.2 3 -7.8 3 -7.8 -0.2z"/>
  <path d="M650.8 176 c0 -10.5 0.1 -11.3 2 -11.3 1.9 0 2 0.7 2 11.3 0 10.5 -0.1 11.3 -2 11.3 -1.9 0 -2 -0.7 -2 -11.3z"/>
  <path d="M662 147.5 c0 -0.6 -1.2 -1.6 -2.8 -2.4 -2.5 -1.1 -3 -2.1 -3.7 -7.5 -0.4 -3.4 -1 -8 -1.3 -10.2 -0.5 -4 -0.4 -4.2 3.4 -6 2.1 -1 7.6 -4.3 12.1 -7.3 4.5 -2.9 9.6 -6.1 11.3 -7.1 1.7 -0.9 6.8 -4 11.2 -6.8 12.2 -7.7 11.9 -8 11.9 10 l0 15 -19.2 11.6 c-17.8 10.6 -22.7 12.9 -22.7 10.5z"/>
 </g>
 <g fill="#4f2bb4">
  <path d="M666.1 507.2 l-37.3 -22.7 -0.3 -13.3 -0.2 -13.3 12.3 -7.5 c6.8 -4.1 12.8 -7.2 13.4 -6.9 0.6 0.4 1 2.7 0.8 5 -0.1 2.3 -0.1 7.7 0 12 l0.1 7.9 24.4 14.5 c13.3 8.1 24.8 14.6 25.3 14.6 0.6 0 8.8 -4.6 18.2 -10.3 9.4 -5.7 17.4 -10.4 17.7 -10.4 0.3 0 3.6 -1.9 7.2 -4.3 l6.5 -4.3 0 -23.3 c0 -18.6 -0.3 -23.3 -1.3 -23.3 -0.7 0 -8.9 4.6 -18.2 10.1 l-16.8 10.1 -0.7 4.5 c-0.9 5.3 -5.1 9.6 -10.4 10.6 -7.3 1.3 -16 -5.5 -16 -12.6 0 -1.1 -0.8 -2.8 -1.7 -3.6 -3 -2.5 -22.5 -14.1 -23.7 -14.1 -2.3 0 -1 -3 2.6 -6 l3.6 -3.3 3.8 2.4 c2 1.2 7.4 4.5 11.8 7.3 l8.1 4.9 4.9 -1.2 c4 -1 5.8 -1 9.2 0 4.9 1.4 2.8 2.6 33.3 -16.3 11.3 -7 23.9 -14.6 28.1 -17 4.2 -2.4 8.8 -5.2 10.2 -6.2 1.4 -1 6.3 -4.2 11.1 -7 6.5 -4 8.4 -5.6 8.4 -7.5 0 -3.5 2.6 -8.9 5 -10.6 2.1 -1.5 2.1 -2.1 1.9 -24.5 l-0.3 -22.9 -2.8 0.1 c-1.6 0 -19.4 0.1 -39.7 0.2 l-36.8 0.2 -1.9 3.9 c-5.5 10.8 -16.8 16.2 -27.5 13 -16.6 -5 -22.9 -25.3 -11.9 -38.3 5.3 -6.1 11.3 -8.6 19.9 -8.1 9.2 0.5 14.5 4 18.8 12.4 l3 5.8 40 -0.2 40 -0.3 -0.2 -23.4 c-0.2 -22.3 -0.3 -23.4 -2.4 -24.9 -2.8 -1.9 -5.1 -6.7 -5.1 -10.4 0 -1.9 -0.7 -3.6 -1.7 -4.2 -3.7 -2.1 -68.6 -41.7 -76.3 -46.6 -7.9 -4.9 -8.1 -5 -12.5 -3.8 -4.4 1.1 -10.7 0.7 -10.7 -0.8 0 -1.3 4.9 -3.1 5.3 -1.8 0.2 0.6 1.1 0.3 2.3 -0.8 1.2 -1.1 1.4 -2 0.8 -2.3 -0.8 -0.2 -0.6 -1.3 0.5 -3.1 1.7 -2.8 1.7 -2.8 -0.4 -0.9 -1.8 1.6 -2.1 1.6 -2.7 0.2 -0.4 -0.8 -0.1 -1.5 0.5 -1.5 0.9 0 0.9 -0.3 0 -1.2 -2.1 -2.1 -1.5 -4.1 1.1 -3.3 1.2 0.4 2.7 1.2 3.1 1.8 0.9 1.1 0.5 -0.4 -0.9 -4 -0.4 -1.1 -0.2 -1.3 0.9 -0.9 1.2 0.4 1.8 -0.2 2.4 -2 0.3 -1.4 1 -2.7 1.5 -2.7 1.2 0 3.3 4.1 3.9 8.2 0.6 3.2 1.7 4.2 13.4 11.5 7.1 4.4 13.3 8 13.9 8 0.5 0 8.8 -4.9 18.4 -10.8 37.1 -23.3 47.7 -29.3 50 -28.2 1.8 0.8 22 13.1 60.8 36.8 l11.7 7.2 0.3 45.4 0.3 45.5 -10.6 6.3 c-5.8 3.6 -11.1 6.2 -11.5 6.1 -4.2 -1.8 -23.7 -14.5 -23.3 -15.2 0.3 -0.5 4.7 -3.5 9.7 -6.8 l9.2 -5.8 0 -29.5 0 -29.5 -5.8 -4 c-7.3 -4.8 -41.9 -25.8 -42.6 -25.8 -0.2 0 -8.3 4.7 -17.7 10.5 -22.5 13.8 -21.9 13.4 -21.9 14.1 0 0.4 2.7 2.3 5.9 4.2 3.2 2 10.7 6.7 16.7 10.3 l10.9 6.7 4.4 -1.4 c4 -1.4 4.8 -1.4 8.8 0.1 10.7 4.1 12.2 15.8 3 23.8 l-3.8 3.3 0.3 13.5 0.3 13.6 18.4 11.2 c10.1 6.1 25.4 15.3 33.8 20.5 l15.3 9.3 0.3 45.2 0.4 45.2 -5.5 3.5 c-8.5 5.5 -56.9 34.8 -63.9 38.6 l-6.2 3.5 -10.7 -6.5 -10.7 -6.4 0.1 -14.7 c0.1 -11.6 0.4 -14.6 1.5 -14.6 0.7 0 5.1 2.3 9.7 5 4.5 2.8 8.8 5.2 9.4 5.4 1.2 0.4 11.8 -5.5 33.7 -19 l15.3 -9.4 0 -30 0 -30 -18.9 -11.7 c-10.4 -6.3 -19.5 -11.7 -20.2 -11.7 -1 0 -1.3 4.8 -1.3 20.8 l0 20.7 3.6 2.9 c7.1 5.6 7.1 14.8 -0.1 21.2 -2.9 2.5 -4.5 3.1 -8.1 3.1 -2.6 0 -5.5 -0.5 -6.5 -1.1 -1.5 -1 -3.9 0 -14.5 6.2 l-12.7 7.5 0 40.3 0 40.3 -11.3 7 c-29.4 17.9 -62.9 38.1 -64.2 38.4 -0.7 0.2 -18.1 -9.8 -38.7 -22.2z m43 -184.4 c4.1 -2 6.1 -5.4 6.1 -9.7 0 -4.4 -2.1 -7.7 -6.3 -9.8 -6.8 -3.5 -15.5 1.9 -15.5 9.6 0 8.8 8 13.9 15.7 9.9z m24.9 -120.9 c-0.7 -0.2 -1.3 -0.9 -1.3 -1.4 0 -0.6 0.5 -0.7 1.1 -0.3 0.7 0.4 1 0.1 0.7 -0.7 -0.7 -2.1 -3.8 -2.4 -4.5 -0.4 -0.7 1.8 1.1 3.6 3.7 3.5 1 0 1.1 -0.2 0.3 -0.6z"/>
  <path d="M702 414.1 c-1.3 -1 -1.5 -4.2 -1.2 -19.4 0.3 -18.1 0.3 -18.1 2.6 -17.6 1.6 0.3 9.4 -3.9 28.3 -15.7 l26.1 -16.1 0.3 -4.4 0.3 -4.3 15.3 0 15.2 0 0 13.7 0 13.7 -13.5 8.4 c-7.5 4.6 -14.3 8.7 -15.1 9.2 -0.8 0.5 -8.4 5.2 -16.9 10.3 -32.4 19.9 -38.5 23.4 -39.2 23.4 -0.4 0 -1.4 -0.6 -2.3 -1.3z"/>
  <path d="M778.8 153.5 c-0.1 -9.5 0.2 -14.3 0.8 -14.3 1.3 0 1.5 27.2 0.2 28 -0.4 0.3 -0.9 -5.8 -1 -13.7z"/>
  <path d="M766.6 132.9 c-5.4 -2.6 -10.8 -7.1 -8.8 -7.1 0.9 0 13 7.3 14.6 8.8 1.4 1.3 -1.1 0.6 -5.8 -1.7z"/>
 </g>
 <g fill="#215aaf">
  <path d="M644 281.9 c-0.3 -0.8 -1.4 -1.7 -2.6 -2 -1 -0.4 -1.9 -1.1 -1.9 -1.6 0 -0.5 -0.9 -1.9 -2 -3.2 -1.1 -1.2 -2 -2.9 -2 -3.6 0 -0.7 -0.4 -1.3 -0.9 -1.3 -0.5 0 -1.1 -1 -1.3 -2.1 -0.4 -2.7 -2 -3.7 -7.2 -4.5 -6 -0.9 -4.9 -3.4 3.6 -8.6 4.1 -2.5 17.4 -10.6 29.6 -18.2 12.3 -7.5 22.7 -13.6 23.3 -13.6 0.5 0 1 0.7 1 1.7 0 0.9 0.3 1.4 0.6 1 1.4 -1.3 5.9 5.9 4.9 7.7 -0.5 0.8 -0.2 0.9 0.9 0.5 1.1 -0.4 1.7 -0.1 1.7 0.8 0 0.7 0.7 2 1.5 3 0.9 0.9 1.1 1.7 0.5 2.1 -1.7 1.1 -1.1 2.6 1.5 3.8 2.8 1.2 3.4 3.4 1.3 4.2 -0.7 0.3 0.1 0.6 1.7 0.6 3.6 0.2 5 -0.8 -27.8 19.2 -13.6 8.3 -19.7 12.6 -19.7 13.8 0 2.4 -5.9 2.6 -6.8 0.3z"/>
  <path d="M627.7 229.7 c-0.4 -0.8 -1.2 -1.5 -2 -1.5 -2.1 0 -1.7 -4.4 0.6 -5.9 1.9 -1.2 2 -2.4 2 -42.1 l0 -40.8 14 -8.6 c20.3 -12.5 21.7 -13.1 19 -8 -0.7 1.4 -1.3 2 -1.3 1.3 0 -0.7 -0.7 -1 -1.5 -0.7 -0.8 0.4 -1.5 1.6 -1.4 2.9 0 2.1 0.1 2.1 1 0.1 0.8 -1.8 0.9 -1.7 0.6 0.6 -0.2 1.4 0.3 3.2 1.1 3.9 1 1 1.1 1.6 0.3 2.5 -1.4 1.4 -1.4 3.1 -0.1 2.3 0.6 -0.3 1 -0.2 1 0.4 0 0.5 -0.5 1.1 -1.2 1.3 -1.8 0.6 -0.1 3.8 2.7 4.9 1.3 0.5 2.7 1.4 2.9 2.1 0.3 1 1.1 1 3.7 0 6.1 -2.6 4.2 -0.6 -4.8 4.9 l-9 5.4 -0.6 9.8 c-0.4 5.4 -0.4 16.6 0 24.9 l0.6 15.1 3.1 -1.5 c1.6 -0.9 7.5 -4.5 12.9 -8 5.4 -3.6 12 -7.7 14.5 -9.2 5.2 -3 5.8 -2.8 7.9 3.3 l1.1 3.4 -7.4 4.7 c-4.1 2.6 -17 10.7 -28.9 18 -11.9 7.3 -22.4 13.9 -23.5 14.6 -2.7 1.8 -6.5 1.8 -7.3 -0.1z"/>
 </g>
 <g fill="#164e9f">
  
  <path d="M643.2 343.2 c-0.9 -0.8 -1.6 -2 -1.6 -2.6 0 -0.5 -0.9 -0.9 -2 -0.9 -1.3 0 -2 -0.7 -2 -2 0 -1.1 -0.9 -2.9 -2 -3.8 -1.1 -1 -2.4 -3.4 -2.7 -5.2 -0.4 -1.9 -1.8 -4.7 -3.4 -6.3 -1.4 -1.5 -3.4 -3.8 -4.2 -5 -0.8 -1.1 -2.3 -2.1 -3.2 -2.1 -0.9 0 -2 -0.7 -2.4 -1.6 -0.3 -0.9 -0.6 -12.8 -0.6 -26.5 l0 -25 2.7 -2 c1.5 -1.2 3.5 -2.1 4.4 -2.1 1.3 0 1.3 0.2 0.3 0.9 -1.1 0.6 -0.9 0.9 0.7 1.4 1.1 0.2 2.3 0 2.6 -0.7 0.3 -0.7 0.5 -0.7 0.5 0.2 0.1 0.7 0.5 1 1.1 0.7 1.3 -0.8 6.4 4.3 5.6 5.6 -0.3 0.6 0.1 1 0.9 1 0.8 0 1.3 0.6 1 1.3 -0.2 0.7 0.5 2.3 1.6 3.5 1.1 1.2 2 2.8 2 3.4 0 0.6 0.5 0.8 1 0.5 0.6 -0.3 1 -0.1 1 0.4 0 0.6 0.7 1.1 1.5 1.1 0.8 0 1.4 0.5 1.3 1.2 -0.2 0.7 0.4 1.2 1.2 1.3 1.3 0 1.5 4.4 1.8 32.5 l0.2 32.4 -3 0 c-1.6 0 -3.8 -0.7 -4.6 -1.6z"/>
  <path d="M606.1 243.8 c-1.4 -0.5 -1.7 -6.2 -0.5 -8.1 0.4 -0.5 5.1 -3.7 10.4 -7.1 5.3 -3.3 10.5 -6.9 11.6 -8 1.4 -1.5 1.7 -1.6 1.7 -0.4 0 0.9 -0.4 1.9 -1 2.3 -1.4 0.8 -1.3 2.6 0.1 2.6 0.7 0 1.7 0.7 2.5 1.6 0.9 1.3 1.6 1.4 3.4 0.5 2.6 -1.3 6.1 -1.5 4.8 -0.2 -2.4 2.3 -28.8 17.5 -30.2 17.4 -0.8 0 -2.1 -0.3 -2.8 -0.6z"/>
  <path d="M610.2 197.4 c-6 -3.6 -8.5 -5.6 -8.5 -7.1 0 -1.1 0.7 -2 1.5 -2 0.8 0 1.5 -0.7 1.5 -1.5 0 -0.8 0.5 -1.5 1 -1.5 1.4 0 0.1 -7.4 -1.5 -8.7 -0.7 -0.5 -1.9 -2.6 -2.7 -4.3 -0.8 -1.8 -1.7 -3.4 -2.1 -3.4 -0.5 0 -0.8 -1.8 -0.8 -4.1 0 -2.9 0.4 -4.1 1.4 -4.1 0.8 0 5.4 2.4 10.2 5.2 l8.8 5.1 0 6.4 c0 3.6 0.3 10.6 0.6 15.8 0.4 5.4 0.3 9.4 -0.2 9.3 -0.5 0 -4.7 -2.4 -9.3 -5.1z"/>
 </g>
 <g fill="#104695">
  
  <path d="M619.2 319.6 c0 -30.6 0.3 -43 1 -41.2 0.6 1.4 1 6.4 1 11.3 0 10.3 0.8 20.5 1.7 20.4 0.4 -0.1 1.4 -0.1 2.3 0.1 1.1 0.1 0.9 0.4 -0.5 1 -1.9 0.8 -1.9 0.9 0.3 0.9 1.2 0.1 2.3 -0.3 2.3 -0.9 0 -0.5 0.5 -1 1 -1 0.7 0 0.8 0.6 0.2 1.7 -0.7 1.1 -0.6 2.1 0.2 3 0.6 0.6 1.9 2.4 3.1 3.9 1 1.4 2.3 2.4 2.8 2.1 1.1 -0.7 2.3 3.3 1.3 4.8 -0.5 0.7 -0.2 0.9 0.8 0.6 0.8 -0.4 2.1 -0.2 3 0.3 1.1 0.8 1 0.9 -0.5 0.7 -2.7 -0.4 -3.4 2.3 -0.7 3 1.1 0.3 1.8 0.9 1.5 1.4 -0.3 0.5 -0.1 0.9 0.4 0.9 0.6 0 0.8 1 0.5 2.4 -0.3 1.4 -0.2 1.8 0.4 1 0.7 -0.9 1.3 -0.7 2.4 0.8 2.7 3.8 4.1 4.9 5.6 4.4 1.1 -0.5 1.5 0.1 1.5 1.9 0 1.4 0.6 2.8 1.4 3.1 0.9 0.3 1.2 1.5 0.9 3.2 -0.4 2 -1.1 2.7 -3.2 2.7 -1.4 0 -7.6 2.6 -13.6 5.6 -6.2 3.2 -12.4 5.6 -14.1 5.6 l-3.2 0 0.1 -43.7z"/>
  <path d="M593.7 259.9 c-1.6 -5.4 -1.5 -9.2 0.2 -9.2 0.8 0 1.6 -0.7 2 -1.5 0.3 -0.8 0.1 -1.5 -0.4 -1.5 -0.6 0 -1 -1.3 -1 -3.1 0 -2.4 -0.4 -3.1 -2 -3.1 -1.6 0 -2 -0.7 -2 -3.6 0 -3.5 0.1 -3.6 4.2 -3.6 2.3 0 5 0.5 6.1 1 1.4 0.8 2.8 0.7 4.9 -0.5 3.6 -1.8 6.7 -2.1 4.2 -0.4 -1.2 0.8 -1.2 1.2 -0.2 1.6 1 0.4 1 0.9 -0.3 2.4 -1.5 1.7 -1.5 1.9 0.4 2.6 1.2 0.4 3.1 0 4.4 -0.9 1.2 -0.9 3.3 -1.6 4.4 -1.6 1.3 0 0.2 1.1 -3.5 3.4 -4.9 3 -5.6 3.8 -6.8 8.4 -0.9 3.3 -2.5 6 -4.5 7.9 -1.7 1.5 -3.2 3.6 -3.2 4.4 0 1 -1 1.5 -2.9 1.5 -2.4 0 -3 -0.6 -4.1 -4.1z"/>
  <path d="M625.9 223 c2.3 -2.5 2.4 -3.2 2.7 -31.6 l0.2 -29.2 0.2 29.7 0.2 29.7 -2.8 1.9 -2.8 1.9 2.3 -2.5z"/>
  <path d="M565.9 206.2 c0 -0.8 -0.9 -1.5 -2 -1.5 -1.6 0 -2 -0.7 -2 -3.6 0 -3 0.5 -3.8 2.6 -4.6 1.4 -0.5 2.6 -1.8 2.6 -2.8 0 -1 1.1 -3.1 2.6 -4.6 1.4 -1.5 2.6 -3.5 2.6 -4.3 0 -1.7 1.9 -4.4 6.4 -8.8 1.5 -1.5 2.8 -3.7 2.8 -4.9 0 -2.8 1.9 -4.6 9.7 -9 l6.7 -3.7 5.6 3.3 c3.1 1.7 5.6 3.4 5.6 3.6 0 0.1 -1.6 -0.1 -3.6 -0.5 -2 -0.4 -3.6 -0.4 -3.6 0.1 0 0.5 0.3 0.9 0.8 0.9 0.4 0 1.5 1.8 2.5 4 1 2.3 2.7 4.3 3.9 4.7 1.5 0.5 1.8 1 1.1 2.5 -0.7 1.3 -0.5 2 1.1 3.1 1.9 1.2 1.9 1.3 0.2 3.3 -1.3 1.5 -1.4 1.9 -0.3 1.9 1.1 0 1.2 0.2 0.1 0.9 -0.8 0.4 -1.4 1.2 -1.5 1.7 -0.1 0.5 -0.6 0.8 -1 0.6 -0.5 -0.1 -0.6 0.2 -0.2 0.8 0.3 0.6 -0.4 1.4 -1.6 1.8 -1.5 0.6 -1.8 1.1 -1.1 1.6 0.7 0.4 1.2 1.2 1.2 1.7 0 0.5 -1.7 -0.2 -3.8 -1.6 -2.1 -1.4 -4.3 -2.6 -4.9 -2.6 -0.5 0 -7.4 3.9 -15.2 8.7 -14.3 8.8 -17 9.9 -17 7.2z"/>
 </g>
 <g fill="#073880">
  
  
  
  
  
  
  
  
  
  
  
  
  
  
  
  
  
  
  
  
  
  
  
  
  
  
  
  
  
  <path d="M559.5 443.3 l-36.6 -22.2 -0.2 -43.6 c-0.2 -23.9 -0.2 -44.3 0 -45.1 0.5 -2.5 15.9 -12 20.4 -12.7 3.6 -0.5 5 0 14.9 6.2 6 3.7 10.9 7 10.9 7.2 0 0.2 -4.4 3.1 -9.7 6.3 l-9.7 5.9 0.2 30.2 0.3 30.2 23 14.1 c15 9.1 23.7 13.9 25.2 13.7 2.3 -0.4 39.3 -22.3 39.3 -23.2 0 -0.5 -6.7 -4.8 -23.3 -14.9 l-10.5 -6.4 -3.9 1.4 c-8.8 3.1 -17.4 -2.4 -18.3 -11.6 -0.3 -4.1 0 -5.9 1.7 -8.8 1.2 -1.9 3.2 -3.9 4.2 -4.2 1.9 -0.6 2 -1.6 2 -15.7 l-0.1 -15 -9.9 -6 c-5.4 -3.3 -19.9 -12 -31.9 -19.3 -12.1 -7.3 -22.6 -13.8 -23.3 -14.4 -1.5 -1.4 -2.1 -90.1 -0.6 -91.7 1.5 -1.5 62.8 -38.9 63.7 -38.9 1.3 0 0 4.3 -1.8 6.1 -1.3 1.3 -1.3 1.5 0.2 1.8 0.9 0.2 1.7 1 1.7 1.8 0 0.8 -0.4 1.3 -0.8 1 -0.5 -0.3 -2.5 1 -4.4 2.9 -5.4 5.2 -7.6 8.1 -6.2 8.6 0.6 0.2 -0.4 1.9 -2.4 4 -1.8 1.9 -3.2 4.3 -2.9 5 0.6 1.6 -2.4 4.9 -3.7 4 -0.5 -0.3 -1.3 0 -1.7 0.6 -0.5 0.8 0.3 1 2.6 0.7 3.1 -0.4 4.4 0.6 1.9 1.5 -0.7 0.2 -1 0.8 -0.6 1.2 0.5 0.5 1.6 0.1 2.6 -0.7 1 -0.9 2.9 -1.9 4.2 -2.3 5.3 -1.6 1.3 1.4 -12.1 9.5 l-14.3 8.6 0 29.9 0 30 19.4 12 c10.7 6.7 19.7 11.9 20 11.6 0.2 -0.2 0.5 -9.6 0.7 -20.8 l0.3 -20.5 -4.3 -4.2 c-4.1 -4 -4.4 -4.7 -4.4 -9.6 0 -4.8 0.4 -5.7 4 -9.3 3.5 -3.6 4.5 -4 8.9 -4 2.8 0 5.7 0.5 6.5 1.1 1.2 0.8 0.9 0.9 -1.2 0.5 -2.9 -0.6 -5.9 0.1 -5.9 1.4 0 0.5 0.8 0.6 1.8 0.4 0.9 -0.2 2.5 0 3.3 0.6 1.3 0.8 1.3 1.3 0.2 3.2 -0.7 1.1 -1.1 2.5 -0.8 2.8 0.3 0.3 0.6 0 0.6 -0.6 0 -0.7 0.5 -1.2 1.1 -1.2 0.5 0 0.8 0.4 0.5 0.9 -0.4 0.5 0 1.2 0.6 1.4 1 0.4 1 0.6 0 0.6 -1 0.1 -1 0.6 -0.1 2.3 0.9 1.8 0.8 2.5 -0.4 3.1 -0.9 0.6 -1.3 1.8 -1 3.2 0.3 1.3 0.1 1.9 -0.4 1.3 -2 -2.5 -3.1 -1.4 -1.9 2.1 0.6 1.9 1.2 3.1 1.4 2.5 1.4 -4.1 1.7 5.2 2 51.4 l0.3 52.4 3.5 3.9 c2.3 2.4 3.8 5.3 4.2 7.9 0.6 3.9 0.9 4.2 18.7 14.9 9.9 6 24.8 15.1 33.2 20.3 l15 9.3 -3.6 3 c-1.9 1.6 -3.4 3.3 -3.1 3.7 0.2 0.5 -0.6 0.6 -1.9 0.4 -2.1 -0.4 -9.8 3.5 -25.2 13 -22.9 14.2 -42.7 25.6 -44.3 25.6 -0.7 0 -17.7 -10 -37.8 -22.3z"/>
  <path d="M681.4 401.8 c-11.5 -7 -29.2 -17.6 -39.3 -23.7 -10.1 -6 -19.4 -12 -20.7 -13.1 l-2.4 -2 0.2 -49.2 0.1 -49.2 0.8 44.4 c0.4 24.4 1 45.9 1.4 47.8 l0.6 3.6 11.8 -6.1 c7 -3.6 12.5 -5.8 13.6 -5.5 1.4 0.3 2 -0.1 2.4 -1.5 0.3 -1.8 1.9 -1.1 14.1 6.3 7.6 4.7 19.6 12.1 26.9 16.4 l13 8 0 18.3 c0 10 -0.4 18.3 -0.9 18.3 -0.5 0 -10.2 -5.6 -21.7 -12.6z"/>
 </g>
</svg>