<?xml version="1.0" encoding="utf-8"?>
<svg version="1.0" xmlns="http://www.w3.org/2000/svg" width="1408px" height="786px" viewBox="480 90 460 460" preserveAspectRatio="xMidYMid meet">
  <g fill="#d7e2d1">
    <path d="M685.1 430.9 c-5.9 -3.8 -23.4 -14.5 -61 -37.5 -17.8 -10.7 -18.1 -11.1 -18.7 -14.9 -0.4 -2.6 -1.9 -5.5 -4.2 -8 l-3.6 -3.9 0 -54.3 0 -54.2 3.6 -3.6 c2.5 -2.5 3.7 -4.8 4.2 -7.9 0.6 -3.8 1.3 -4.7 5.2 -7.1 6.4 -3.8 51.3 -31.4 67.8 -41.7 13.3 -8.3 14 -8.6 18.4 -8 2.6 0.3 8.3 0.6 12.8 0.5 l8.2 -0.1 8.9 5.6 c4.9 3.1 23 14.2 40.4 24.8 17.3 10.5 32.5 19.7 33.9 20.6 1.5 0.9 2.3 2.4 2.3 4.5 0 3.8 2.4 8.5 5.3 10.5 2.3 1.6 2.4 1.9 2.4 28 l0 26.3 -43.1 0.3 -43.2 0.2 -2.8 -5.7 c-4.7 -9.6 -13.6 -14.3 -22.2 -11.8 -5.4 1.6 -13.3 9.5 -14.9 15 -3.2 10.6 8.2 25 19.7 25 5.9 0 14.3 -6.3 18 -13.5 l1.9 -3.9 36.8 -0.2 c20.3 -0.1 39.5 -0.2 42.8 -0.3 l5.8 0 0.3 26 c0.2 25.5 0.2 26 -1.9 27.5 -2.5 1.7 -5 7.2 -5 10.6 0 1.8 -1.8 3.5 -8.4 7.5 -4.7 2.8 -9.6 5.9 -11.1 7 -1.4 1 -6 3.9 -10.2 6.2 -4.2 2.4 -16.9 10 -28.1 17 -30.3 18.7 -28.4 17.7 -34.6 17 -6.1 -0.7 -5.6 -0.7 -13.5 -0.1 -5.8 0.5 -6.4 0.3 -12.3 -3.5z m30.1 -26.6 c5.4 -3.3 16.8 -10.1 25.2 -15.3 8.5 -5.1 16.1 -9.8 16.9 -10.3 0.8 -0.5 7.7 -4.6 15.1 -9.2 l13.5 -8.4 0 -10.6 0 -10.6 -12.2 0 -12.3 0 -0.3 4.3 -0.3 4.4 -26.1 16.1 c-21.7 13.4 -26.8 16.1 -30.1 16.2 -3.3 0 -7.8 -2.4 -28.1 -14.6 -13.3 -8.1 -25.2 -15.3 -26.4 -16.2 l-2.4 -1.4 0 -35.8 0 -35.8 8.4 -5.1 c4.6 -2.9 16.5 -10 26.3 -16.1 15.1 -9.3 18.6 -11.1 22.1 -11.1 3.5 0.1 8 2.5 30.2 16.2 l26.1 16.2 0.3 4.8 0.3 4.8 12.8 0 12.7 0 -0.1 -8.9 c-0.1 -5 -0.4 -10.1 -0.8 -11.6 -0.7 -2.7 -6.5 -6.4 -58.6 -38 l-22.3 -13.5 -4.2 1.9 c-2.4 1 -6.1 3.2 -8.3 4.8 -2.3 1.6 -6.2 4.1 -8.8 5.5 -5.7 3.2 -51.2 31.1 -57 35 l-4.1 2.8 -0.3 47.6 c-0.2 45.4 -0.1 47.8 1.6 49.4 2.5 2.1 79.2 48.7 80.4 48.7 0.4 0 5.3 -2.7 10.7 -6z"/>
    <path d="M696 326.1 c-4.3 -2.5 -5.8 -5.8 -5.8 -13.2 0 -6.4 0.2 -7.2 3.3 -10.1 2.7 -2.8 4.2 -3.4 8.9 -3.8 11.2 -0.9 16 3.3 16 14 0 7.6 -1.3 10.4 -6.1 12.9 -3.6 1.8 -12.9 1.9 -16.2 0.2z"/>
  </g>
  <g fill="#9ee37d">
    <path d="M788.9 435.9 c0 -10.5 0.1 -11.3 2 -11.3 1.9 0 2 0.7 2 11.3 0 10.5 -0.1 11.3 -2 11.3 -1.9 0 -2 -0.7 -2 -11.3z"/>
    <path d="M776.7 407.3 l0 -7.2 3.6 0 c3.7 0 4.8 1.3 2 2.5 -1.1 0.4 -1.5 2.1 -1.5 6.2 0 4.9 -0.2 5.6 -2 5.6 -1.8 0 -2 -0.7 -2 -7.2z"/>
    <path d="M882 336.7 c0 -4.5 0.4 -8.2 0.8 -8.2 2.3 0 3.3 3 3.3 9.4 0 6.2 -0.2 7 -2 7 -1.8 0 -2 -0.7 -2 -8.2z"/>
    <path d="M814.5 274.7 l0 -16.9 3.8 0 c3.5 0 3.6 0.1 2 1.8 -1.4 1.5 -1.7 4.3 -1.7 15.9 0 12.2 0.2 14 1.8 14.9 1.4 0.8 1 1 -2 1.1 l-3.9 0 0 -16.9z"/>
    <path d="M758 284.8 l-0.3 -4.8 -26.1 -16.2 c-19.3 -12 -26.7 -16 -28.4 -15.7 l-2.3 0.5 0 -18.3 0 -18.3 2.7 -0.6 c3.3 -0.8 4.8 0 51.1 28.3 26.4 16.3 33.9 21.2 34.4 23.2 0.4 1.4 0.7 8 0.8 14.6 l0.1 12 -15.8 0 -15.9 0 -0.3 -4.8z"/>
  </g>
  <g fill="#7bc465">
    <path d="M522.5 412.2 c-0.8 -3.1 -0.8 -76.9 0 -79 0.3 -0.9 1.2 -1.6 2 -1.6 1.2 0 1.4 6.7 1.4 41.4 0 34.6 -0.2 41.4 -1.4 41.4 -0.7 0 -1.6 -1 -2 -2.3z"/>
    <path d="M596.6 289.6 c0 -23.8 0.1 -24.6 2 -24.6 1.9 0 2 0.7 2 24.6 0 23.8 -0.1 24.6 -2 24.6 -1.9 0 -2 -0.7 -2 -24.6z"/>
    <path d="M692.7 249.3 c0 -1.3 -0.7 -2.7 -1.5 -3.1 -0.8 -0.3 -1.5 -1.6 -1.5 -3.1 0 -3.5 -1 -5.7 -2.6 -5.7 -0.7 0 -1.6 -1.5 -1.9 -3.5 -0.4 -2.3 -1.4 -3.8 -2.7 -4.2 -1.4 -0.4 -2 -1.5 -2 -3.7 0 -1.6 0.5 -3 1.1 -3 0.6 0 3.3 -1.5 5.9 -3.5 5.5 -4.1 12.7 -7.8 14.8 -7.8 1.3 0 1.6 2.7 1.8 17.7 l0.3 17.6 -4 2.4 c-5.2 3 -7.8 3 -7.8 -0.2z"/>
    <path d="M650.8 176 c0 -10.5 0.1 -11.3 2 -11.3 1.9 0 2 0.7 2 11.3 0 10.5 -0.1 11.3 -2 11.3 -1.9 0 -2 -0.7 -2 -11.3z"/>
  </g>
</svg>
