<svg width="1600" height="900" viewBox="0 0 1600 900" fill="none" xmlns="http://www.w3.org/2000/svg">
  <defs>
    <linearGradient id="bg" x1="188" y1="96" x2="1410" y2="826" gradientUnits="userSpaceOnUse">
      <stop stop-color="#171F2F"/>
      <stop offset="1" stop-color="#0B0E15"/>
    </linearGradient>
    <linearGradient id="panel" x1="267" y1="145" x2="1317" y2="738" gradientUnits="userSpaceOnUse">
      <stop stop-color="#222C42"/>
      <stop offset="1" stop-color="#111521"/>
    </linearGradient>
    <linearGradient id="accent" x1="333" y1="248" x2="1129" y2="625" gradientUnits="userSpaceOnUse">
      <stop stop-color="#B9D2FF"/>
      <stop offset="1" stop-color="#E6B8FF"/>
    </linearGradient>
  </defs>
  <rect width="1600" height="900" fill="url(#bg)"/>
  <circle cx="1315" cy="170" r="162" fill="#2B3654" fill-opacity="0.4"/>
  <rect x="248" y="132" width="1104" height="636" rx="36" fill="url(#panel)" stroke="#394766" stroke-width="2"/>
  <rect x="316" y="218" width="968" height="466" rx="30" fill="#111624" stroke="#3D4B6A" stroke-width="2"/>
  <rect x="356" y="260" width="220" height="382" rx="24" fill="#171D2D"/>
  <rect x="610" y="260" width="286" height="170" rx="24" fill="#171D2D"/>
  <rect x="928" y="260" width="316" height="170" rx="24" fill="#171D2D"/>
  <rect x="610" y="462" width="634" height="180" rx="24" fill="#171D2D"/>
  <circle cx="466" cy="348" r="58" fill="url(#accent)"/>
  <path d="M430 430H502" stroke="#F7F9FF" stroke-width="12" stroke-linecap="round"/>
  <path d="M404 466H528" stroke="#8C96B8" stroke-width="10" stroke-linecap="round"/>
  <path d="M404 498H512" stroke="#8C96B8" stroke-width="10" stroke-linecap="round"/>
  <path d="M658 310H820" stroke="#F7F9FF" stroke-width="14" stroke-linecap="round"/>
  <path d="M658 350H772" stroke="#8C96B8" stroke-width="10" stroke-linecap="round"/>
  <path d="M970 310H1142" stroke="#F7F9FF" stroke-width="14" stroke-linecap="round"/>
  <path d="M970 350H1202" stroke="#8C96B8" stroke-width="10" stroke-linecap="round"/>
  <rect x="656" y="514" width="198" height="18" rx="9" fill="#B9D2FF"/>
  <rect x="656" y="550" width="292" height="12" rx="6" fill="#8C96B8"/>
  <rect x="656" y="580" width="246" height="12" rx="6" fill="#8C96B8"/>
  <rect x="1004" y="512" width="186" height="94" rx="18" fill="url(#accent)" fill-opacity="0.22"/>
  <path d="M1042 552H1152" stroke="#DDBBFF" stroke-width="12" stroke-linecap="round"/>
  <path d="M1097 525V579" stroke="#DDBBFF" stroke-width="12" stroke-linecap="round"/>
  <text x="318" y="108" fill="#E0E8FF" font-family="'IBM Plex Mono', monospace" font-size="26" letter-spacing="0.18em">INTERNSHIP / LEVEL 2</text>
  <text x="320" y="824" fill="#F4F7FF" font-family="'IBM Plex Mono', monospace" font-size="72" font-weight="600">Portfolio API</text>
</svg>
